<mxfile host="app.diagrams.net" modified="2022-05-08T09:09:36.362Z" agent="5.0 (Macintosh; Intel Mac OS X 10_15_7) AppleWebKit/537.36 (KHTML, like Gecko) Chrome/101.0.4951.54 Safari/537.36" etag="BteOF1ZOqhvF1836Lw5T" version="18.0.1" type="github">
  <diagram id="6a731a19-8d31-9384-78a2-239565b7b9f0" name="Page-1">
    <mxGraphModel dx="2365" dy="1535" grid="1" gridSize="10" guides="1" tooltips="1" connect="1" arrows="1" fold="1" page="1" pageScale="1" pageWidth="827" pageHeight="1169" background="none" math="0" shadow="0">
      <root>
        <mxCell id="0" />
        <mxCell id="1" parent="0" />
        <mxCell id="2095" value="Mahallah Ali Network Design" style="rounded=1;whiteSpace=wrap;html=1;strokeColor=none;fillColor=#BAC8D3;fontSize=24;fontColor=#23445D;align=center;opacity=60;" parent="1" vertex="1">
          <mxGeometry x="30" y="30" width="1580" height="90" as="geometry" />
        </mxCell>
        <mxCell id="CGuNquNgfVL59DryOSws-2281" style="edgeStyle=orthogonalEdgeStyle;rounded=1;orthogonalLoop=1;jettySize=auto;html=1;exitX=1;exitY=0.5;exitDx=0;exitDy=0;endArrow=none;endFill=0;" edge="1" parent="1" source="CGuNquNgfVL59DryOSws-2259" target="CGuNquNgfVL59DryOSws-2263">
          <mxGeometry relative="1" as="geometry" />
        </mxCell>
        <mxCell id="CGuNquNgfVL59DryOSws-2259" value="" style="image;html=1;image=img/lib/clip_art/networking/Router_Icon_128x128.png" vertex="1" parent="1">
          <mxGeometry x="150" y="370" width="90" height="90" as="geometry" />
        </mxCell>
        <mxCell id="CGuNquNgfVL59DryOSws-2282" style="edgeStyle=orthogonalEdgeStyle;rounded=1;orthogonalLoop=1;jettySize=auto;html=1;exitX=1;exitY=0.5;exitDx=0;exitDy=0;entryX=0;entryY=0.5;entryDx=0;entryDy=0;endArrow=none;endFill=0;" edge="1" parent="1" source="CGuNquNgfVL59DryOSws-2263" target="CGuNquNgfVL59DryOSws-2264">
          <mxGeometry relative="1" as="geometry" />
        </mxCell>
        <mxCell id="CGuNquNgfVL59DryOSws-2288" style="edgeStyle=orthogonalEdgeStyle;rounded=1;orthogonalLoop=1;jettySize=auto;html=1;exitX=0.5;exitY=1;exitDx=0;exitDy=0;endArrow=none;endFill=0;" edge="1" parent="1" source="CGuNquNgfVL59DryOSws-2263" target="CGuNquNgfVL59DryOSws-2277">
          <mxGeometry relative="1" as="geometry" />
        </mxCell>
        <mxCell id="CGuNquNgfVL59DryOSws-2263" value="" style="image;html=1;image=img/lib/clip_art/networking/Router_Icon_128x128.png" vertex="1" parent="1">
          <mxGeometry x="680" y="370" width="90" height="90" as="geometry" />
        </mxCell>
        <mxCell id="CGuNquNgfVL59DryOSws-2283" style="edgeStyle=orthogonalEdgeStyle;rounded=1;orthogonalLoop=1;jettySize=auto;html=1;exitX=1;exitY=0.5;exitDx=0;exitDy=0;endArrow=none;endFill=0;" edge="1" parent="1" source="CGuNquNgfVL59DryOSws-2264" target="CGuNquNgfVL59DryOSws-2265">
          <mxGeometry relative="1" as="geometry" />
        </mxCell>
        <mxCell id="CGuNquNgfVL59DryOSws-2264" value="" style="image;html=1;image=img/lib/clip_art/networking/Router_Icon_128x128.png" vertex="1" parent="1">
          <mxGeometry x="1370" y="370" width="90" height="90" as="geometry" />
        </mxCell>
        <mxCell id="CGuNquNgfVL59DryOSws-2265" value="" style="image;html=1;image=img/lib/clip_art/networking/Router_Icon_128x128.png" vertex="1" parent="1">
          <mxGeometry x="1720" y="380" width="90" height="90" as="geometry" />
        </mxCell>
        <mxCell id="CGuNquNgfVL59DryOSws-2271" style="edgeStyle=orthogonalEdgeStyle;rounded=1;orthogonalLoop=1;jettySize=auto;html=1;exitX=0;exitY=0.25;exitDx=0;exitDy=0;endArrow=none;endFill=0;" edge="1" parent="1" source="CGuNquNgfVL59DryOSws-2266" target="CGuNquNgfVL59DryOSws-2259">
          <mxGeometry relative="1" as="geometry" />
        </mxCell>
        <mxCell id="CGuNquNgfVL59DryOSws-2266" value="" style="image;html=1;image=img/lib/clip_art/networking/Switch_128x128.png" vertex="1" parent="1">
          <mxGeometry x="155" y="580" width="80" height="80" as="geometry" />
        </mxCell>
        <mxCell id="CGuNquNgfVL59DryOSws-2272" style="edgeStyle=orthogonalEdgeStyle;rounded=1;orthogonalLoop=1;jettySize=auto;html=1;exitX=0.5;exitY=0.07;exitDx=0;exitDy=0;exitPerimeter=0;endArrow=none;endFill=0;" edge="1" parent="1" source="CGuNquNgfVL59DryOSws-2267" target="CGuNquNgfVL59DryOSws-2266">
          <mxGeometry relative="1" as="geometry" />
        </mxCell>
        <mxCell id="CGuNquNgfVL59DryOSws-2267" value="" style="fontColor=#0066CC;verticalAlign=top;verticalLabelPosition=bottom;labelPosition=center;align=center;html=1;outlineConnect=0;fillColor=#CCCCCC;strokeColor=#6881B3;gradientColor=none;gradientDirection=north;strokeWidth=2;shape=mxgraph.networks.pc;" vertex="1" parent="1">
          <mxGeometry x="55" y="870" width="100" height="70" as="geometry" />
        </mxCell>
        <mxCell id="CGuNquNgfVL59DryOSws-2273" style="edgeStyle=orthogonalEdgeStyle;rounded=1;orthogonalLoop=1;jettySize=auto;html=1;exitX=0.5;exitY=0.07;exitDx=0;exitDy=0;exitPerimeter=0;entryX=1;entryY=0.75;entryDx=0;entryDy=0;endArrow=none;endFill=0;" edge="1" parent="1" source="CGuNquNgfVL59DryOSws-2268" target="CGuNquNgfVL59DryOSws-2266">
          <mxGeometry relative="1" as="geometry" />
        </mxCell>
        <mxCell id="CGuNquNgfVL59DryOSws-2268" value="" style="fontColor=#0066CC;verticalAlign=top;verticalLabelPosition=bottom;labelPosition=center;align=center;html=1;outlineConnect=0;fillColor=#CCCCCC;strokeColor=#6881B3;gradientColor=none;gradientDirection=north;strokeWidth=2;shape=mxgraph.networks.pc;" vertex="1" parent="1">
          <mxGeometry x="210" y="870" width="100" height="70" as="geometry" />
        </mxCell>
        <mxCell id="CGuNquNgfVL59DryOSws-2274" style="edgeStyle=orthogonalEdgeStyle;rounded=1;orthogonalLoop=1;jettySize=auto;html=1;exitX=0.5;exitY=0.07;exitDx=0;exitDy=0;exitPerimeter=0;entryX=1;entryY=0.5;entryDx=0;entryDy=0;endArrow=none;endFill=0;" edge="1" parent="1" source="CGuNquNgfVL59DryOSws-2269" target="CGuNquNgfVL59DryOSws-2266">
          <mxGeometry relative="1" as="geometry" />
        </mxCell>
        <mxCell id="CGuNquNgfVL59DryOSws-2269" value="" style="fontColor=#0066CC;verticalAlign=top;verticalLabelPosition=bottom;labelPosition=center;align=center;html=1;outlineConnect=0;fillColor=#CCCCCC;strokeColor=#6881B3;gradientColor=none;gradientDirection=north;strokeWidth=2;shape=mxgraph.networks.pc;" vertex="1" parent="1">
          <mxGeometry x="350" y="870" width="100" height="70" as="geometry" />
        </mxCell>
        <mxCell id="CGuNquNgfVL59DryOSws-2275" style="edgeStyle=orthogonalEdgeStyle;rounded=1;orthogonalLoop=1;jettySize=auto;html=1;exitX=0;exitY=0.5;exitDx=0;exitDy=0;exitPerimeter=0;endArrow=none;endFill=0;" edge="1" parent="1" source="CGuNquNgfVL59DryOSws-2270" target="CGuNquNgfVL59DryOSws-2266">
          <mxGeometry relative="1" as="geometry" />
        </mxCell>
        <mxCell id="CGuNquNgfVL59DryOSws-2270" value="" style="fontColor=#0066CC;verticalAlign=top;verticalLabelPosition=bottom;labelPosition=center;align=center;html=1;outlineConnect=0;fillColor=#CCCCCC;strokeColor=#6881B3;gradientColor=none;gradientDirection=north;strokeWidth=2;shape=mxgraph.networks.pc;" vertex="1" parent="1">
          <mxGeometry x="210" y="1010" width="100" height="70" as="geometry" />
        </mxCell>
        <mxCell id="CGuNquNgfVL59DryOSws-2276" value="" style="fontColor=#0066CC;verticalAlign=top;verticalLabelPosition=bottom;labelPosition=center;align=center;html=1;outlineConnect=0;fillColor=#CCCCCC;strokeColor=#6881B3;gradientColor=none;gradientDirection=north;strokeWidth=2;shape=mxgraph.networks.printer;" vertex="1" parent="1">
          <mxGeometry x="210" y="1150" width="100" height="100" as="geometry" />
        </mxCell>
        <mxCell id="CGuNquNgfVL59DryOSws-2277" value="" style="verticalLabelPosition=bottom;sketch=0;aspect=fixed;html=1;verticalAlign=top;strokeColor=none;align=center;outlineConnect=0;shape=mxgraph.citrix.laptop_1;" vertex="1" parent="1">
          <mxGeometry x="730" y="700" width="91" height="77" as="geometry" />
        </mxCell>
        <mxCell id="CGuNquNgfVL59DryOSws-2280" style="edgeStyle=orthogonalEdgeStyle;rounded=1;orthogonalLoop=1;jettySize=auto;html=1;exitX=0;exitY=0.5;exitDx=0;exitDy=0;entryX=1;entryY=0.5;entryDx=0;entryDy=0;endArrow=none;endFill=0;" edge="1" parent="1" source="CGuNquNgfVL59DryOSws-2279" target="CGuNquNgfVL59DryOSws-2266">
          <mxGeometry relative="1" as="geometry" />
        </mxCell>
        <mxCell id="CGuNquNgfVL59DryOSws-2279" value="" style="image;html=1;image=img/lib/clip_art/computers/Server_128x128.png" vertex="1" parent="1">
          <mxGeometry x="440" y="680" width="80" height="80" as="geometry" />
        </mxCell>
        <mxCell id="CGuNquNgfVL59DryOSws-2286" value="" style="edgeStyle=orthogonalEdgeStyle;rounded=1;orthogonalLoop=1;jettySize=auto;html=1;exitX=0.75;exitY=0;exitDx=0;exitDy=0;endArrow=none;endFill=0;" edge="1" parent="1" source="CGuNquNgfVL59DryOSws-2263">
          <mxGeometry relative="1" as="geometry">
            <mxPoint x="747.5" y="370" as="sourcePoint" />
            <mxPoint x="820" y="300" as="targetPoint" />
          </mxGeometry>
        </mxCell>
        <mxCell id="CGuNquNgfVL59DryOSws-2287" value="" style="image;html=1;image=img/lib/clip_art/networking/Router_Icon_128x128.png" vertex="1" parent="1">
          <mxGeometry x="780" y="240" width="80" height="80" as="geometry" />
        </mxCell>
        <mxCell id="CGuNquNgfVL59DryOSws-2289" value="Main Router" style="text;html=1;strokeColor=none;fillColor=none;align=center;verticalAlign=middle;whiteSpace=wrap;rounded=0;fontSize=27;" vertex="1" parent="1">
          <mxGeometry x="760" y="200" width="160" height="30" as="geometry" />
        </mxCell>
        <mxCell id="CGuNquNgfVL59DryOSws-2293" value="Mahallah Office" style="text;html=1;strokeColor=none;fillColor=none;align=center;verticalAlign=middle;whiteSpace=wrap;rounded=0;fontSize=27;" vertex="1" parent="1">
          <mxGeometry x="100" y="340" width="230" height="30" as="geometry" />
        </mxCell>
        <mxCell id="CGuNquNgfVL59DryOSws-2294" value="Cafe Ali" style="text;html=1;strokeColor=none;fillColor=none;align=center;verticalAlign=middle;whiteSpace=wrap;rounded=0;fontSize=27;" vertex="1" parent="1">
          <mxGeometry x="780" y="370" width="160" height="30" as="geometry" />
        </mxCell>
        <mxCell id="CGuNquNgfVL59DryOSws-2295" value="Mahallah Ali Block A" style="text;html=1;strokeColor=none;fillColor=none;align=center;verticalAlign=middle;whiteSpace=wrap;rounded=0;fontSize=27;" vertex="1" parent="1">
          <mxGeometry x="1330" y="310" width="160" height="30" as="geometry" />
        </mxCell>
        <mxCell id="CGuNquNgfVL59DryOSws-2297" value="Mahallah Ali Block B" style="text;html=1;strokeColor=none;fillColor=none;align=center;verticalAlign=middle;whiteSpace=wrap;rounded=0;fontSize=27;" vertex="1" parent="1">
          <mxGeometry x="1690" y="330" width="160" height="30" as="geometry" />
        </mxCell>
      </root>
    </mxGraphModel>
  </diagram>
</mxfile>
